<svg xmlns="http://www.w3.org/2000/svg" xmlns:xlink="http://www.w3.org/1999/xlink">
  <defs>
    <linearGradient gradientUnits="userSpaceOnUse" x1="-819.2" x2="819.2" spreadMethod="pad" gradientTransform="matrix(-0.014373779296875 -0.0321807861328125 0.0463409423828125 -0.02069091796875 475.3 300.8)" id="gradient0">
      <stop offset="0" stop-color="#FFFFFF"/>
      <stop offset="1" stop-color="#A8A8A8"/>
    </linearGradient>
    <linearGradient gradientUnits="userSpaceOnUse" x1="-819.2" x2="819.2" spreadMethod="pad" gradientTransform="matrix(0.0146026611328125 -0.00390625 0.010223388671875 0.038116455078125 540.65 313.9)" id="gradient1">
      <stop offset="0" stop-color="#FFFFFF"/>
      <stop offset="1" stop-color="#A8A8A8"/>
    </linearGradient>
    ...
    </defs>
<g>
<path stroke="none" fill="#FFFFFF" d="M507.8 300.1 Q514.55 270.8 528.2 259.15 L527.65 261.1 Q515.3 289.6 509.5 320.75 L523.65 325.65 Q535.85 292 553.05 281.6 535.9 307.9 528.25 339 L537.85 346.25 458.1 346.25 463.75 335.75 Q457.15 316.5 444 300.55 462.2 312.45 475.9 342.4 L484.75 328.75 Q479.7 284.85 465.8 259.15 476.95 268.25 485.35 284.95 496.5 239 518 221.5 498.45 266.1 497 294.5 L507.8 300.1"/>
<path stroke="none" fill="url(#gradient0)" d="M475.9 342.4 Q477.65 296.3 465.8 259.15 479.7 284.85 484.75 328.75 L475.9 342.4"/>
..
</g>
</svg>